<svg width="58" height="58" viewBox="0 0 58 58" fill="none" xmlns="http://www.w3.org/2000/svg">
<g clip-path="url(#clip0)">
<path d="M55.8065 21.9474C54.7546 20.8377 53.4211 20.0509 51.9553 19.6584C51.6565 17.1657 50.5928 14.8091 48.8865 12.9065C47.1998 11.0254 44.9815 9.69098 42.5352 9.06443C41.9118 3.96564 37.4638 0 32.0867 0C26.807 0 22.4229 3.82302 21.6759 8.78813C18.9405 9.17408 16.4159 10.4161 14.4463 12.3692C12.5043 14.2947 11.2783 16.7358 10.903 19.3718H8.21821C3.68662 19.3718 0 22.9827 0 27.4211C0 31.8594 3.68662 35.4703 8.21821 35.4703H18.541H46.086H49.7818C54.3134 35.4703 58 31.8594 58 27.4211C58 25.3835 57.221 23.4397 55.8065 21.9474Z" fill="#01C293"/>
<path d="M55.8065 21.9475C54.7546 20.8377 53.421 20.0509 51.9553 19.6584C51.6565 17.1657 50.5928 14.8091 48.8865 12.9065C47.1997 11.0254 44.9815 9.69098 42.5352 9.06443C41.9118 3.96564 37.4638 0 32.0867 0C31.8159 0 31.5482 0.0125742 31.2826 0.0322852V35.4023C31.2826 35.4023 45.1475 35.4703 46.086 35.4703H49.7818C54.3134 35.4703 58 31.8594 58 27.4211C58 25.3835 57.221 23.4397 55.8065 21.9475Z" fill="#00AA80"/>
<path d="M40.7454 19.4088H21.8197C19.0748 19.4088 16.8417 21.6126 16.8417 24.3214V48.9083C16.8417 51.617 19.0748 53.8208 21.8197 53.8208H40.5045L45.7233 39.8656V24.3213C45.7234 21.6125 43.4903 19.4088 40.7454 19.4088Z" fill="#E7F0EF"/>
<path d="M40.7454 19.4088H31.2826V53.8208H40.5047L45.7235 39.8656V24.3213C45.7235 21.6125 43.4903 19.4088 40.7454 19.4088Z" fill="#D6DBDA"/>
<path d="M51.5729 48.4501C51.2941 47.8508 50.6931 47.4676 50.0322 47.4676H49.4342V39.8656C49.4342 38.9272 48.6734 38.1664 47.7349 38.1664H44.0242C41.0412 38.1664 38.6143 40.5599 38.6143 43.502V47.4676H38.0163C37.3554 47.4676 36.7544 47.8508 36.4756 48.4501C36.1968 49.0493 36.2908 49.7559 36.7165 50.2614L42.7244 57.3954C43.0474 57.7788 43.5229 58.0001 44.0242 58.0001C44.5255 58.0001 45.001 57.7789 45.324 57.3954L51.332 50.2614C51.7577 49.7559 51.8517 49.0493 51.5729 48.4501Z" fill="#90CC1C"/>
<path d="M36.9884 38.8008H25.5769C24.6385 38.8008 23.8777 38.04 23.8777 37.1016C23.8777 36.1631 24.6385 35.4023 25.5769 35.4023H36.9883C37.9267 35.4023 38.6875 36.1631 38.6875 37.1016C38.6875 38.04 37.9268 38.8008 36.9884 38.8008Z" fill="#4F53AD"/>
<path d="M36.9884 32.1398H25.5769C24.6385 32.1398 23.8777 31.379 23.8777 30.4406C23.8777 29.5021 24.6385 28.7413 25.5769 28.7413H36.9883C37.9267 28.7413 38.6875 29.5021 38.6875 30.4406C38.6875 31.379 37.9268 32.1398 36.9884 32.1398Z" fill="#4F53AD"/>
<path d="M36.9883 35.4023H31.2826V38.8008H36.9883C37.9268 38.8008 38.6876 38.04 38.6876 37.1016C38.6876 36.1631 37.9268 35.4023 36.9883 35.4023Z" fill="#303491"/>
<path d="M38.6876 30.4406C38.6876 29.5021 37.9268 28.7413 36.9883 28.7413H31.2826V32.1398H36.9883C37.9268 32.1398 38.6876 31.379 38.6876 30.4406Z" fill="#303491"/>
<path d="M51.5729 48.4501C51.2941 47.8508 50.6931 47.4676 50.0322 47.4676H49.4342V39.8656C49.4342 38.9272 48.6734 38.1664 47.7349 38.1664H44.0243V58C44.5256 58 45.0011 57.7788 45.324 57.3953L51.332 50.2613C51.7577 49.7558 51.8517 49.0493 51.5729 48.4501Z" fill="#66BB00"/>
</g>
<defs>
<clipPath id="clip0">
<rect width="58" height="58" fill="white"/>
</clipPath>
</defs>
</svg>
