<svg width="50" height="50" viewBox="0 0 50 50" fill="none" xmlns="http://www.w3.org/2000/svg">
<path d="M33.5127 42.1765V37.0115C33.5127 36.2025 32.8569 35.5466 32.0479 35.5466H17.9773C17.1683 35.5466 16.5125 36.2025 16.5125 37.0115V42.1765H33.5127Z" fill="#00AA80"/>
<path d="M33.5127 37.0115C33.5127 36.2025 32.8568 35.5466 32.0479 35.5466H25V42.1765H33.5127V37.0115Z" fill="#303491"/>
<path d="M32.0232 41.2107H17.9769C13.9384 41.2107 10.6527 44.4963 10.6527 48.5349C10.6527 49.3439 11.3086 49.9997 12.1176 49.9997H37.8825C38.6915 49.9997 39.3473 49.3439 39.3473 48.5349C39.3474 44.4963 36.0617 41.2107 32.0232 41.2107Z" fill="#01C293"/>
<path d="M37.8825 49.9997C38.6915 49.9997 39.3474 49.3439 39.3474 48.5349C39.3474 44.4963 36.0617 41.2107 32.0231 41.2107H25V49.9997H37.8825Z" fill="#00AA80"/>
<path d="M50 35.092V1.4657C50 0.657105 49.3438 0.000854492 48.5352 0.000854492H1.46484C0.65625 0.000854492 0 0.657105 0 1.4657V35.092H50Z" fill="#E7F0EF"/>
<path d="M50 35.0914V1.46509C50 0.656494 49.3438 0.000244141 48.5352 0.000244141H25V35.0914H50Z" fill="#D6DBDA"/>
<path d="M22.5234 33.3987H2.94432C2.73339 29.8333 4.84276 26.7229 7.90135 25.4368C8.86522 25.0315 9.92382 24.8069 11.0332 24.8069H14.4346C15.5068 24.8069 16.5303 25.0159 17.4678 25.3967C20.5791 26.6565 22.7363 29.7952 22.5234 33.3987Z" fill="#4F53AD"/>
<path d="M12.6682 27.7352C16.037 27.7352 18.7679 25.0042 18.7679 21.6355C18.7679 18.2667 16.037 15.5358 12.6682 15.5358C9.29941 15.5358 6.56848 18.2667 6.56848 21.6355C6.56848 25.0042 9.29941 27.7352 12.6682 27.7352Z" fill="#FEDBAB"/>
<path d="M47.0557 33.3987H27.4765C27.2656 29.8333 29.375 26.7229 32.4336 25.4368C33.3974 25.0315 34.456 24.8069 35.5654 24.8069H38.9668C40.039 24.8069 41.0625 25.0159 42 25.3967C45.1113 26.6565 47.2685 29.7952 47.0557 33.3987Z" fill="#303491"/>
<path d="M37.2005 27.7352C40.5693 27.7352 43.3002 25.0042 43.3002 21.6355C43.3002 18.2667 40.5693 15.5358 37.2005 15.5358C33.8318 15.5358 31.1008 18.2667 31.1008 21.6355C31.1008 25.0042 33.8318 27.7352 37.2005 27.7352Z" fill="#FEC478"/>
<path d="M36.5559 3.45068H13.2251C12.5894 3.45068 12.0741 3.96602 12.0741 4.60166V9.90215C12.0741 10.5378 12.5894 11.0531 13.2251 11.0531H16.2866L19.3249 14.0914C19.5496 14.3161 19.8441 14.4285 20.1387 14.4285C20.4334 14.4285 20.7278 14.3161 20.9526 14.0914L23.9909 11.0531H25.7902L28.8284 14.0913C29.0442 14.3071 29.337 14.4284 29.6423 14.4284C29.9475 14.4284 30.2403 14.3071 30.4561 14.0913L33.4944 11.053H36.556C37.1917 11.053 37.707 10.5377 37.707 9.90205V4.60166C37.7069 3.96602 37.1916 3.45068 36.5559 3.45068Z" fill="#FDD762"/>
<path d="M36.5558 3.45068H24.9863V11.053H25.79L28.8282 14.0913C29.044 14.3071 29.3368 14.4284 29.6421 14.4284C29.9474 14.4284 30.2401 14.3071 30.456 14.0913L33.4942 11.053H36.5559C37.1915 11.053 37.7068 10.5377 37.7068 9.90205V4.60166C37.7067 3.96602 37.1914 3.45068 36.5558 3.45068Z" fill="#F7CE00"/>
<path d="M0 30.7811V36.8162C0 37.6252 0.655859 38.281 1.46484 38.281H48.5352C49.3441 38.281 50 37.6252 50 36.8162V30.7811H0Z" fill="#01C293"/>
<path d="M25 30.7811V38.281H48.5352C49.3441 38.281 50 37.6252 50 36.8162V30.7811H25Z" fill="#00AA80"/>
</svg>
