<svg width="43" height="26" viewBox="0 0 43 26" fill="none" xmlns="http://www.w3.org/2000/svg">
<path d="M42.0686 20.0069C42.0322 19.9387 41.9798 19.8876 41.9115 19.8508C41.8458 19.8141 41.7783 19.7952 41.7082 19.7952C41.6371 19.7952 41.5696 19.8141 41.5039 19.8508C41.4382 19.8876 41.3841 19.9387 41.3477 20.0069C41.3113 20.0723 41.2926 20.1422 41.2926 20.2149C41.2926 20.2875 41.3113 20.3574 41.3477 20.4229C41.3859 20.4892 41.4374 20.543 41.5022 20.5798C41.5679 20.6166 41.6371 20.6354 41.7099 20.6354C41.7801 20.6354 41.8493 20.6166 41.915 20.5798C41.9798 20.543 42.0313 20.4892 42.0686 20.4229C42.105 20.3574 42.1237 20.2866 42.1237 20.2149C42.1237 20.1422 42.1059 20.0723 42.0686 20.0069ZM41.8502 20.3709H41.7597L41.7046 20.2328H41.6504V20.3709H41.5776V20.0194H41.7232C41.741 20.0194 41.7774 20.0203 41.8138 20.0391C41.8325 20.0571 41.8502 20.092 41.8502 20.127C41.8502 20.1656 41.8325 20.2023 41.7961 20.2185L41.8502 20.3709Z" fill="#616161"/>
<path d="M41.7419 20.0912C41.7419 20.084 41.7054 20.084 41.6868 20.084H41.6504V20.1745H41.7054C41.7054 20.1745 41.7241 20.1745 41.7419 20.1674C41.7605 20.1593 41.7605 20.1423 41.7605 20.1261C41.7605 20.1127 41.7605 20.0983 41.7419 20.0912Z" fill="#616161"/>
<path d="M30.1302 0C26.8069 0.000896644 23.7792 1.27324 21.4973 3.36062C19.2137 1.27413 16.1878 0.00269017 12.8689 0.00269017C12.8414 0.00269017 12.8139 0.00269017 12.7864 0.00269017C5.72061 0.0493157 0 5.85419 0 12.9996C0 20.1745 5.76589 25.9955 12.8689 25.9955C16.1878 25.9955 19.2128 24.7241 21.4964 22.6376C21.0197 22.2027 20.5881 21.7212 20.1806 21.2173H22.8389C22.4376 21.714 21.9999 22.1785 21.532 22.6089H21.5293C21.5302 22.6107 21.5302 22.6107 21.5302 22.6107C21.5195 22.6205 21.508 22.6277 21.4973 22.6385C23.7801 24.7286 26.8113 26.0009 30.1355 26C37.2439 25.9982 43.0018 20.1772 43 13.0004C43 12.9978 43 12.996 43 12.9942C42.9982 5.81743 37.235 0 30.1302 0ZM20.3271 4.7038H22.7723C23.1346 5.14405 23.4693 5.60941 23.7712 6.09539H19.409C19.6878 5.63003 19.9968 5.15391 20.3271 4.7038ZM18.6472 7.46098H24.5117C24.7221 7.91199 24.9068 8.37645 25.0666 8.85347H17.952C18.0222 8.71897 18.2708 8.1774 18.6472 7.46098ZM12.1622 16.1163H10.635L11.5442 11.3013L9.45325 16.1163H8.07171L7.81689 11.3336L6.9077 16.1163H5.52527L6.70793 9.85592H9.09011L9.19932 13.733L10.8907 9.85592H13.3644L12.1622 16.1163ZM17.564 13.4111L17.2364 15.2196L17.1822 15.5433L17.1458 15.8016L17.1272 15.9755L17.1094 16.1136H15.8371L15.8735 15.5873C15.4926 16.0069 14.9643 16.2015 14.2736 16.2015C13.4549 16.2015 12.8911 15.6339 12.8911 14.8126C12.8911 13.5734 13.8731 12.8489 15.5636 12.8489C15.727 12.8489 15.9454 12.8642 16.1816 12.8884C16.218 12.7207 16.2367 12.6508 16.2367 12.5575C16.2367 12.2213 15.9632 12.0957 15.2547 12.0957C14.8178 12.0957 14.3268 12.1486 14.0001 12.2365L13.7817 12.2921L13.6547 12.3253L13.8545 11.1785C14.618 10.983 15.109 10.9104 15.6728 10.9104C16.9816 10.9104 17.6732 11.4277 17.6732 12.4033C17.6732 12.6561 17.6555 12.8453 17.564 13.4111ZM20.6024 10.8987C21.856 10.8987 22.6569 11.6187 22.6569 12.7476C22.6569 13.1251 22.6019 13.49 22.4731 14.0065H19.4561C19.4375 14.0845 19.4375 14.1195 19.4375 14.1679C19.4375 14.757 19.892 15.0574 20.7648 15.0574C21.3109 15.0574 21.8019 14.9587 22.347 14.7346L22.0931 16.0096C21.5835 16.1477 21.0747 16.2149 20.5473 16.2149C18.8381 16.2149 17.9467 15.4321 17.9467 13.9321C17.9467 12.1863 19.0743 10.9005 20.6024 10.8987ZM23.7872 19.8804H19.2208C18.9438 19.4321 18.6836 18.9721 18.4608 18.4888H24.5365C24.3137 18.9703 24.0642 19.433 23.7872 19.8804ZM26.5849 12.1935C26.1845 12.1468 25.7849 12.119 25.475 12.119C24.9832 12.119 24.7292 12.2589 24.7292 12.5324C24.7292 12.7709 24.802 12.8283 25.4386 13.0865C26.2191 13.3959 26.5298 13.8056 26.5298 14.5041C26.5298 15.6662 25.784 16.2033 24.1468 16.2033C23.9479 16.2033 23.6753 16.188 23.3113 16.1611C23.1293 16.1477 22.9845 16.1333 22.8922 16.1145L22.6196 16.0643L22.5468 16.0499L22.7652 14.8753C23.2562 15.0152 23.6762 15.0762 24.1477 15.0762C24.7479 15.0762 25.0204 14.9345 25.0204 14.6171C25.0204 14.384 24.929 14.3087 24.311 14.0549C23.4933 13.7222 23.1293 13.2775 23.1293 12.6355C23.1293 11.6949 23.7295 10.9122 25.4395 10.9122C25.8036 10.9122 26.4038 10.957 26.8024 11.0126L26.5849 12.1935ZM28.9688 14.9767C29.1313 14.9767 29.2583 14.9605 29.3675 14.9273L29.1677 16.0571C28.7495 16.1728 28.4228 16.2239 28.0765 16.2239C27.2943 16.2239 26.8761 15.8267 26.8761 15.1049C26.8761 14.9614 26.8939 14.809 26.9125 14.6476L27.004 14.1464L27.0759 13.7438L27.7853 9.85592H29.2938L29.0763 11.0251H29.8576L29.6392 12.2643H28.857L28.4574 14.3885C28.4388 14.4808 28.4388 14.5507 28.4388 14.5983C28.4388 14.8628 28.603 14.9749 28.9688 14.9767ZM32.6882 12.458C31.961 12.458 31.7257 13.0049 31.1797 16.119H29.6516L30.5795 11.026H31.9619L31.8163 11.7989C32.2895 11.1973 32.6518 10.9713 33.1437 10.9713C33.1987 10.9713 33.2537 10.9767 33.3079 10.9839C33.3079 10.9866 33.3638 10.9964 33.4375 11.0144C33.4553 11.0198 33.4731 11.0198 33.6009 11.07L33.0575 12.5091L32.8755 12.4714C32.8027 12.4625 32.7485 12.458 32.6882 12.458ZM35.3864 16.2526C33.6551 16.2526 32.9661 15.1963 32.9661 13.9043C32.9661 12.1011 34.1478 10.8772 35.9662 10.8772C37.5502 10.8772 38.3866 11.8832 38.3866 13.1744C38.3866 13.4909 38.3866 13.5124 38.3502 13.8083C38.1131 15.5021 36.9491 16.2544 35.3864 16.2526ZM38.5135 16.1163C38.2951 16.1163 38.1131 15.9379 38.1131 15.7173C38.1131 15.5003 38.2951 15.3219 38.5135 15.3219C38.732 15.3219 38.914 15.5003 38.914 15.7173C38.914 15.9388 38.732 16.1163 38.5135 16.1163Z" fill="#616161"/>
<path d="M38.5135 15.4161C38.3502 15.4161 38.2046 15.5515 38.2046 15.7174C38.2046 15.8877 38.3502 16.0222 38.5135 16.0222C38.6778 16.0222 38.8048 15.886 38.8048 15.7174C38.8048 15.5524 38.6778 15.4161 38.5135 15.4161ZM38.6583 15.8949H38.5668L38.5118 15.7577H38.4567V15.8949H38.3839V15.5425H38.5295C38.5491 15.5425 38.5855 15.5443 38.6219 15.5632C38.6396 15.5802 38.6583 15.6152 38.6583 15.651C38.6583 15.6887 38.6396 15.7263 38.6032 15.7425L38.6583 15.8949Z" fill="#616161"/>
<path d="M38.5491 15.6142C38.55 15.6061 38.5136 15.6061 38.4958 15.6061H38.4576V15.6967H38.5127C38.5127 15.6967 38.5313 15.6967 38.5491 15.6895C38.5677 15.6814 38.5677 15.6644 38.5677 15.6492C38.5677 15.6357 38.5677 15.6214 38.5491 15.6142Z" fill="#616161"/>
<path d="M20.5837 12.0653C20.0927 12.0653 19.7474 12.389 19.6017 12.979L21.2931 12.9826C21.2931 12.8714 21.2931 12.7853 21.2931 12.7189C21.2931 12.3056 21.0383 12.0653 20.5837 12.0653Z" fill="#616161"/>
<path d="M15.6542 13.829C14.8009 13.8281 14.3641 14.0891 14.3641 14.6037C14.3641 14.9203 14.5648 15.1229 14.9093 15.1229C15.5281 15.1229 15.9641 14.601 16.0005 13.8479C15.8362 13.8308 15.7634 13.829 15.6542 13.829Z" fill="#616161"/>
<path d="M35.9307 12.1235C35.1485 12.1235 34.6761 13.0516 34.6761 13.8693C34.6761 14.5615 35.0029 15.026 35.5489 15.0152C35.8774 15.0152 36.5851 14.5588 36.7129 13.7671C36.7484 13.5815 36.7671 13.3779 36.7671 13.1565C36.7671 12.6257 36.5495 12.1217 35.9307 12.1235Z" fill="#616161"/>
</svg>
