<svg width="43" height="26" viewBox="0 0 43 26" fill="none" xmlns="http://www.w3.org/2000/svg">
<path d="M30.1297 4.14426e-07C26.808 0.000897059 23.7802 1.27234 21.4982 3.36062C19.2145 1.27503 16.1885 0.00269058 12.8703 0.00269058C12.8428 0.00269058 12.8144 0.00269058 12.7878 0.00269058C5.72173 0.0493161 0 5.85419 0 12.9996C0 20.1736 5.76613 25.9955 12.8695 25.9955C16.1876 25.9955 19.2136 24.725 21.4964 22.6376C21.0196 22.2027 20.5881 21.7212 20.1806 21.2173H22.8381C22.4376 21.7131 22.0008 22.1776 21.5311 22.6098H21.5293C21.5186 22.6214 21.5071 22.6277 21.4964 22.6376C23.7811 24.7268 26.8106 26.0009 30.1341 26C37.2419 25.9973 43.0018 20.1763 43 12.9996C43 12.9969 43 12.9951 43 12.9933C43.0009 5.81653 37.2374 -0.00179287 30.1297 4.14426e-07ZM20.3279 4.7029H22.7742C23.1347 5.14405 23.4694 5.60851 23.7731 6.09449H19.409C19.6904 5.63003 19.9994 5.15212 20.3279 4.7029ZM18.6489 7.45919H24.5154C24.724 7.9093 24.9087 8.37466 25.0703 8.85167H17.9537C18.0247 8.71718 18.2733 8.1756 18.6489 7.45919ZM5.2538 16.31L6.03428 11.3408L4.27354 16.31H3.32969L3.20715 11.3408L2.3734 16.31H1.05129L2.14698 9.71963H4.14657L4.21671 13.7635L5.56723 9.71963H7.73641L6.65582 16.31H5.2538ZM9.92868 16.2992L9.97396 15.7729C9.95265 15.7756 9.53533 16.4086 8.56839 16.4086C8.06228 16.4086 7.24539 16.1297 7.24539 14.9175C7.24539 13.3761 8.49025 12.8651 9.67562 12.8651C9.86208 12.8651 10.2643 12.8991 10.2643 12.8991C10.2643 12.8991 10.3096 12.805 10.3096 12.5503C10.3096 12.1316 9.93667 12.0742 9.42612 12.0742C8.52666 12.0742 7.93264 12.3172 7.93264 12.3172L8.13153 11.1247C8.13153 11.1247 8.85252 10.8198 9.79105 10.8198C10.2767 10.8198 11.6734 10.8718 11.6734 12.4885L11.1354 16.2992H9.92868ZM15.028 14.6207C15.028 16.4597 13.2637 16.3808 12.9556 16.3808C11.8057 16.3808 11.4506 16.2203 11.4177 16.2113L11.6006 15.0009C11.6024 14.9901 12.1778 15.2116 12.818 15.2116C13.1873 15.2116 13.6668 15.1748 13.6668 14.7292C13.6668 14.0621 11.9514 14.2217 11.9514 12.6373C11.9514 11.2394 12.9796 10.8306 13.9936 10.8306C14.7767 10.8306 15.2579 10.9391 15.2579 10.9391L15.0848 12.1603C15.0848 12.1603 14.3416 12.0984 14.1489 12.0984C13.6615 12.0984 13.396 12.206 13.396 12.5503C13.3951 13.2425 15.028 12.9036 15.028 14.6207ZM17.1465 15.1031C17.2682 15.1031 17.4058 15.0609 17.4999 15.0609L17.3286 16.2364C17.1909 16.275 16.8011 16.4149 16.3013 16.4185C15.6628 16.4238 15.2091 16.0634 15.2091 15.2456C15.2091 14.6969 15.9878 10.1751 16.018 10.1455H17.3881L17.2487 10.9543H17.9324L17.7574 12.2571H17.032L16.6466 14.6574C16.6173 14.8484 16.6697 15.1031 17.1465 15.1031ZM20.1601 10.8019C21.6643 10.8019 22.1144 11.9137 22.1144 12.8256C22.1144 13.1905 21.9333 14.0872 21.9333 14.0872H19.1488C19.1488 14.0872 18.8913 15.1945 20.3626 15.1945C21.0525 15.1945 21.8179 14.8538 21.8179 14.8538L21.5764 16.1871C21.5764 16.1871 21.1342 16.4149 20.1291 16.4149C19.0396 16.4149 17.7619 15.9495 17.7619 13.9948C17.7628 12.3011 18.7821 10.8019 20.1601 10.8019ZM23.789 19.8786H19.2234C18.9455 19.4303 18.6862 18.9703 18.4633 18.487H24.5393C24.3156 18.9676 24.0652 19.4321 23.789 19.8786ZM23.4827 16.3198H22.0763L22.9313 10.9561H24.2073L24.0847 11.7335C24.0847 11.7335 24.5393 10.888 25.1529 10.888C25.3314 10.888 25.4175 10.9059 25.4175 10.9059C25.2355 11.2807 25.0747 11.6241 24.9078 12.5109C23.956 12.1702 23.8832 14.0289 23.4827 16.3198ZM28.8413 16.2364C28.8413 16.2364 28.1043 16.4265 27.6426 16.4265C26.0071 16.4265 25.1769 15.2869 25.1769 13.5609C25.1769 10.9579 26.7156 9.57168 28.297 9.57168C29.0118 9.57168 29.8402 9.91061 29.8402 9.91061L29.6164 11.3766C29.6164 11.3766 29.0562 10.9812 28.3591 10.9812C27.4268 10.9812 26.5904 11.8796 26.5904 13.5124C26.5904 14.3167 26.9802 15.0663 27.9534 15.0663C28.416 15.0663 29.0864 14.7265 29.0864 14.7265L28.8413 16.2364ZM32.1399 16.3019L32.1861 15.772C32.1639 15.7747 31.7465 16.4077 30.7805 16.4077C30.2744 16.4077 29.4575 16.1288 29.4575 14.9166C29.4575 13.3752 30.7024 12.8642 31.8868 12.8642C32.0733 12.8642 32.4764 12.8982 32.4764 12.8982C32.4764 12.8982 32.5226 12.805 32.5226 12.5503C32.5226 12.1316 32.1497 12.0742 31.6382 12.0742C30.7388 12.0742 30.1456 12.3172 30.1456 12.3172L30.3445 11.1247C30.3445 11.1247 31.0655 10.8198 32.0049 10.8198C32.4897 10.8198 33.8873 10.8718 33.8864 12.4885L33.3484 16.2992C33.3475 16.3019 32.1399 16.3019 32.1399 16.3019ZM34.9874 16.3198H33.581L34.436 10.9561H35.7129L35.5903 11.7335C35.5903 11.7335 36.0458 10.888 36.6594 10.888C36.8379 10.888 36.9231 10.9059 36.9231 10.9059C36.742 11.2807 36.5795 11.6241 36.4134 12.5109C35.4607 12.1702 35.3879 14.0289 34.9874 16.3198ZM39.1864 16.3055L39.2459 15.8114C39.2459 15.8114 38.7913 16.3907 37.9691 16.3907C36.8299 16.3907 36.2714 15.2797 36.2714 14.1446C36.2714 12.3889 37.3173 10.8584 38.5728 10.8584C39.3809 10.8602 39.8967 11.5802 39.8967 11.5802L40.1933 9.72859L41.5669 9.7259L40.5192 16.3055H39.1864ZM41.8963 16.1199C41.8599 16.1862 41.8084 16.2373 41.7427 16.2768C41.6779 16.3135 41.6086 16.3324 41.5358 16.3324C41.4648 16.3324 41.3964 16.3135 41.3307 16.2768C41.265 16.2373 41.2135 16.1862 41.1771 16.1199C41.1398 16.0526 41.1221 15.9845 41.1221 15.9119C41.1221 15.8383 41.1407 15.7684 41.1771 15.702C41.2135 15.6357 41.2677 15.5819 41.3325 15.546C41.4 15.5093 41.4666 15.4904 41.5358 15.4904C41.6069 15.4904 41.6743 15.5093 41.74 15.546C41.8075 15.5828 41.859 15.6339 41.8963 15.702C41.9345 15.7693 41.9514 15.8392 41.9514 15.9119C41.9514 15.9845 41.9336 16.0535 41.8963 16.1199Z" fill="#616161"/>
<path d="M41.7862 20.0858C41.7773 20.0795 41.7693 20.0696 41.7551 20.0642C41.7409 20.0589 41.7187 20.0562 41.6841 20.0562H41.6006V20.1907H41.6894C41.7312 20.1907 41.7587 20.1871 41.7747 20.1718C41.7898 20.1593 41.7969 20.1441 41.7969 20.1225C41.7969 20.1082 41.7933 20.0983 41.7862 20.0858Z" fill="#616161"/>
<path d="M42.073 20.0051C42.0348 19.9352 41.9825 19.8858 41.9159 19.8491C41.8493 19.8123 41.7818 19.7935 41.7125 19.7935C41.6415 19.7935 41.574 19.8123 41.5083 19.8491C41.4426 19.8858 41.3884 19.937 41.352 20.0051C41.3139 20.0715 41.297 20.1414 41.297 20.2131C41.297 20.2849 41.3156 20.3557 41.352 20.4211C41.3902 20.4875 41.4417 20.5413 41.5065 20.5781C41.5722 20.6148 41.6415 20.6336 41.7143 20.6336C41.7853 20.6336 41.8546 20.6148 41.9194 20.5781C41.9842 20.5413 42.0366 20.4875 42.073 20.4211C42.1103 20.3557 42.1281 20.2857 42.1281 20.2131C42.1281 20.1405 42.1094 20.0706 42.073 20.0051ZM41.8173 20.4462L41.7782 20.3754C41.7472 20.3198 41.7214 20.2831 41.7019 20.2687C41.6894 20.2597 41.6699 20.2526 41.645 20.2526H41.6033V20.4454H41.5305V19.9925H41.685C41.7383 19.9925 41.7765 19.997 41.7978 20.006C41.8217 20.015 41.8422 20.0275 41.8546 20.0499C41.8688 20.0706 41.875 20.093 41.875 20.1163C41.875 20.1495 41.8626 20.1773 41.8404 20.2033C41.8173 20.2266 41.7853 20.2418 41.7472 20.2445C41.7631 20.2499 41.7756 20.2588 41.7853 20.2687C41.804 20.2866 41.8253 20.3162 41.8519 20.3575L41.907 20.4462H41.8173Z" fill="#616161"/>
<path d="M9.7866 13.8936C8.78237 13.8936 8.57903 14.3491 8.57903 14.7284C8.57903 14.9239 8.69002 15.2502 9.11533 15.2502C9.94021 15.2502 10.1116 14.1581 10.0849 13.9259C10.0459 13.9178 10.021 13.8945 9.7866 13.8936Z" fill="#616161"/>
<path d="M20.1655 12.0402C19.4187 12.0402 19.2749 12.8983 19.2749 12.9889H20.7959C20.7959 12.9198 20.9388 12.0402 20.1655 12.0402Z" fill="#616161"/>
<path d="M38.8099 12.19C38.207 12.19 37.7302 12.8965 37.7311 13.9698C37.7311 14.6244 37.962 15.044 38.4557 15.044C39.198 15.044 39.5558 14.0657 39.5558 13.3368C39.5558 12.5325 39.3027 12.19 38.8099 12.19Z" fill="#616161"/>
<path d="M41.8342 15.738C41.8031 15.6824 41.7596 15.6394 41.7045 15.608C41.6495 15.5766 41.5935 15.5614 41.5349 15.5614C41.4781 15.5614 41.4204 15.5775 41.3653 15.608C41.3103 15.6367 41.2668 15.6815 41.2357 15.738C41.2046 15.7945 41.1886 15.8546 41.1886 15.9128C41.1886 15.9729 41.2046 16.0321 41.2339 16.0868C41.2668 16.1424 41.3085 16.1845 41.3636 16.2177C41.4186 16.2482 41.4754 16.2661 41.5349 16.2661C41.5944 16.2661 41.653 16.2482 41.7063 16.2177C41.7614 16.1863 41.804 16.1433 41.8359 16.0868C41.867 16.0312 41.8812 15.9729 41.8812 15.9128C41.8812 15.8537 41.8652 15.7945 41.8342 15.738ZM41.6415 16.1433L41.6015 16.0733C41.5705 16.0169 41.5456 15.981 41.5269 15.9675C41.5119 15.9559 41.4941 15.9505 41.4683 15.9505H41.4275V16.1424H41.3529V15.6905H41.5083C41.5607 15.6905 41.5998 15.695 41.622 15.7048C41.6441 15.7129 41.6637 15.7281 41.6788 15.7479C41.6939 15.7676 41.6992 15.79 41.6992 15.8142C41.6992 15.8474 41.6868 15.8752 41.6637 15.9003C41.6406 15.9263 41.6086 15.9371 41.5713 15.9415C41.5891 15.9487 41.6006 15.9568 41.6095 15.9648C41.6282 15.9837 41.6495 16.0106 41.6752 16.0536L41.7303 16.1433H41.6415Z" fill="#616161"/>
<path d="M31.9996 13.8936C30.9954 13.8936 30.7921 14.3491 30.7921 14.7284C30.7921 14.9239 30.9022 15.2502 31.3284 15.2502C32.1532 15.2502 32.3237 14.1581 32.298 13.9259C32.258 13.9178 32.2331 13.8945 31.9996 13.8936Z" fill="#616161"/>
<path d="M41.6113 15.7828C41.6042 15.7738 41.5944 15.7666 41.5811 15.7603C41.566 15.7558 41.5438 15.7514 41.5083 15.7514L41.4275 15.7523V15.8886H41.5154C41.5571 15.8886 41.5846 15.8832 41.6015 15.8697C41.6148 15.8563 41.6228 15.8392 41.6228 15.8195C41.6228 15.8043 41.6193 15.7953 41.6113 15.7828Z" fill="#616161"/>
</svg>
