<svg width="115" height="19" viewBox="0 0 115 19" fill="none" xmlns="http://www.w3.org/2000/svg">
<path d="M108.339 4.11612C108.187 3.40629 107.865 2.76139 107.369 2.20521C106.764 1.5192 106.005 1.07556 105.17 0.746613C104.289 0.404685 103.375 0.220739 102.441 0.119026C102.165 0.0887287 101.89 0.0627587 101.614 0.0302972C101.492 0.0194768 101.372 0.06925 101.251 0.00216291C98.5346 0.00216291 95.8164 0.00216291 93.0981 0.00216291C92.9656 0.727136 92.831 1.44995 92.6964 2.17708C92.3716 3.98411 92.0403 5.7868 91.7112 7.59382C91.4206 9.20175 91.1278 10.8032 90.8308 12.4111C90.7068 13.095 90.585 13.7853 90.4632 14.4648C90.4226 14.6769 90.4205 14.6812 90.226 14.6812C87.2407 14.6812 84.2489 14.6812 81.2636 14.6812C81.1994 14.6812 81.1311 14.6856 81.0477 14.6466C81.0926 14.4151 81.1311 14.1813 81.1781 13.9498C81.3191 13.1599 81.4687 12.37 81.614 11.5693C81.6482 11.3745 81.6525 11.3745 81.8363 11.3745C82.9411 11.3745 84.0395 11.3745 85.1422 11.3745C85.7768 11.3745 86.4137 11.3745 87.0505 11.3745C87.3347 11.3745 87.3091 11.4048 87.3582 11.1256C87.5548 10.0003 87.76 8.8793 87.9587 7.76262C87.9843 7.61546 87.9843 7.61114 87.8305 7.61114C87.4843 7.60681 87.1317 7.61114 86.7812 7.61114C85.3751 7.61114 83.969 7.61114 82.5586 7.61114C82.3214 7.61114 82.3235 7.61114 82.3662 7.37092C82.5372 6.44685 82.7017 5.51845 82.8748 4.59222C82.9304 4.28924 82.8706 4.3282 83.1868 4.3282C84.9434 4.32387 86.7043 4.32387 88.4609 4.32387C88.5122 4.32387 88.572 4.31954 88.6212 4.3282C88.7387 4.33902 88.7707 4.28059 88.7921 4.17671C88.884 3.63569 88.9802 3.10115 89.0763 2.56446C89.2216 1.78105 89.367 0.99332 89.5059 0.205588C89.5187 0.142829 89.5358 0.073577 89.5315 0.00432582C85.5696 0.00432582 81.6055 0.00432582 77.6435 0.00432582C77.6392 0.300807 77.5602 0.586469 77.5068 0.867802C77.3508 1.79836 77.1755 2.72244 77.0046 3.653C76.8058 4.73505 76.6049 5.82575 76.4126 6.91429C76.1776 8.21708 75.9382 9.51554 75.7031 10.8162C75.5236 11.8008 75.3484 12.7812 75.1689 13.7593C75.139 13.9152 75.1347 13.9195 74.9702 13.9195C73.6495 13.9195 72.3224 13.9195 70.9997 13.9195C70.8202 13.9195 70.8116 13.9065 70.8479 13.7334C71.0916 12.3851 71.3416 11.0326 71.5937 9.68651C71.8309 8.39021 72.0682 7.09392 72.3032 5.79979C72.5532 4.42558 72.8075 3.06003 73.0597 1.69232C73.1559 1.17943 73.2499 0.655723 73.3439 0.140668C73.3525 0.0952215 73.3503 0.0454461 73.3525 0C71.2839 0 69.211 0 67.1467 0C66.8518 1.61875 66.559 3.231 66.262 4.85191C65.9863 6.36245 65.7149 7.87299 65.4414 9.3857C65.1743 10.84 64.9072 12.2986 64.64 13.7528C64.6101 13.9173 64.6058 13.9216 64.4498 13.9216C63.1591 13.9216 61.8684 13.9216 60.5776 13.9216C60.3981 13.9216 60.3981 13.913 60.4345 13.7355C60.7529 11.9805 61.0756 10.2448 61.3918 8.49625C61.7209 6.70005 62.0586 4.89952 62.3898 3.10332C62.5672 2.14246 62.7424 1.18376 62.9134 0.222904C62.9283 0.153652 62.9518 0.0757435 62.9283 0C60.8576 0 58.789 0 56.7204 0C56.7076 0.287825 56.6306 0.566996 56.5836 0.846164C56.4319 1.70315 56.2738 2.55147 56.1178 3.40629C55.919 4.497 55.7203 5.58121 55.5216 6.66975C55.3143 7.81673 55.1027 8.96802 54.8976 10.1172C54.6753 11.3291 54.4552 12.5323 54.2351 13.7399C54.1859 14.0104 54.1283 14.2766 54.0898 14.5471C54.0727 14.6574 54.0235 14.6812 53.9295 14.6812C53.8889 14.6769 53.8483 14.6812 53.8077 14.6812C50.833 14.6812 47.8605 14.6812 44.8858 14.6769C44.6315 14.6769 44.6016 14.7418 44.6636 14.3977C44.8367 13.4564 45.0012 12.5171 45.1679 11.5758C45.2042 11.3767 45.2042 11.3767 45.4179 11.3767C47.1468 11.3767 48.8798 11.3767 50.6087 11.3767C50.6642 11.3767 50.7176 11.3723 50.7711 11.3767C50.8608 11.3853 50.9057 11.3464 50.9207 11.2533C51.1301 10.0609 51.3438 8.87064 51.5553 7.68255C51.5575 7.67822 51.5553 7.67173 51.5532 7.66091C51.4784 7.61546 51.3972 7.63494 51.3181 7.63494C49.5915 7.63494 47.8712 7.63494 46.1466 7.63494C45.8923 7.63494 45.8881 7.63494 45.9329 7.3904C46.1082 6.41439 46.2855 5.44271 46.4608 4.4667C46.48 4.36066 46.5185 4.31521 46.6339 4.31954C46.8689 4.32603 47.104 4.31954 47.3434 4.31954C48.9333 4.31954 50.521 4.31954 52.1088 4.31954C52.1558 4.31954 52.2028 4.31521 52.252 4.32387C52.361 4.33469 52.4037 4.27842 52.4229 4.17238C52.4849 3.78717 52.5576 3.40629 52.6281 3.02324C52.7969 2.07537 52.9679 1.13182 53.1367 0.183946C53.1474 0.123352 53.1474 0.0627577 53.1538 0.00216291C40.832 0.00216291 28.5145 0.00216291 16.1927 0.00216291C16.1542 0.37006 16.073 0.727138 16.0089 1.08854C15.7717 2.40431 15.5345 3.72658 15.2973 5.03586C15.0879 6.19365 14.8806 7.34928 14.6733 8.50491C14.5045 9.44196 14.3314 10.3812 14.1625 11.3182C14.1519 11.381 14.1369 11.4394 14.1262 11.5065C14.0621 11.5065 14.0621 11.4589 14.0493 11.4264C13.3013 9.34891 12.5555 7.26704 11.8076 5.18734C11.2071 3.51666 10.6023 1.85247 9.99758 0.181783C9.97835 0.127681 9.96553 0.0649235 9.94843 0.00649286C7.79863 0.00649286 5.64884 0.00649286 3.49904 0.00649286C3.40715 0.495579 3.31312 0.984664 3.22337 1.47375C2.93488 3.05571 2.64852 4.64199 2.36003 6.21962C2.0694 7.81456 1.77664 9.40084 1.48601 10.9936C1.21034 12.515 0.936808 14.0407 0.659002 15.562C0.468811 16.6095 0.27862 17.6547 0.0884292 18.6978C0.0649225 18.7649 0.0478267 18.8233 0.000813275 18.8666C0.00295025 18.9272 -0.0226934 19.0246 0.103388 18.9943C0.129032 18.9813 0.156812 18.9943 0.184593 18.9943C2.19121 18.9943 4.19997 18.9943 6.20872 18.9943C6.1724 18.8839 6.20445 18.7822 6.22368 18.6805C6.43097 17.5011 6.63398 16.3151 6.84127 15.1314C7.06565 13.8546 7.29431 12.5799 7.51869 11.3031C7.72811 10.0998 7.9354 8.90743 8.14269 7.70852C8.17474 7.53539 8.2068 7.36443 8.23458 7.18914C8.30296 7.18481 8.29869 7.23458 8.30937 7.27137C8.58718 8.07642 8.86285 8.88579 9.13638 9.69516C9.81166 11.6753 10.4869 13.6576 11.1622 15.6399C11.5127 16.6765 11.8674 17.7067 12.2179 18.7454C12.2414 18.8255 12.282 18.8947 12.2777 18.9835C19.6311 18.9835 26.9908 18.9835 34.3484 18.9835C34.3634 18.6827 34.4382 18.397 34.4895 18.1157C34.7096 16.8886 34.9361 15.6529 35.1583 14.4259C35.3806 13.2097 35.6028 11.9956 35.8251 10.7815C36.0217 9.70598 36.2161 8.62826 36.4106 7.55703C36.5965 6.53342 36.7867 5.51629 36.9726 4.49483C37.0025 4.32603 36.9897 4.31954 37.1756 4.31954C38.1907 4.31954 39.2036 4.31954 40.2187 4.31954C40.2465 4.31954 40.2721 4.32387 40.2999 4.32387C40.3811 4.31521 40.4089 4.36066 40.3982 4.43424C40.364 4.63117 40.3341 4.8281 40.2977 5.02287C40.005 6.6308 39.7101 8.24305 39.4152 9.85314C39.1245 11.4351 38.8339 13.0235 38.5454 14.6055C38.3467 15.6876 38.1522 16.7653 37.9578 17.8473C37.8894 18.2282 37.8231 18.6048 37.7569 18.9791C57.0687 18.9791 76.3806 18.9791 95.6903 18.9791C95.7031 18.687 95.7779 18.4078 95.8249 18.1222C95.9916 17.1765 96.1625 16.2286 96.3335 15.2829C96.5686 13.9801 96.81 12.6795 97.0472 11.3767C97.1391 10.8746 97.2268 10.366 97.3186 9.86396C97.387 9.87046 97.3785 9.92888 97.3892 9.97217C97.808 11.3875 98.229 12.8115 98.6436 14.2354C99.1009 15.7893 99.5561 17.3366 100.007 18.8861C100.016 18.9142 100.02 18.9402 100.024 18.9705C102.084 18.9705 104.14 18.9705 106.196 18.9705C105.976 18.3819 105.766 17.7867 105.542 17.2024C104.858 15.3456 104.166 13.491 103.48 11.6428C103.392 11.4178 103.396 11.4178 103.627 11.368C104.202 11.2468 104.772 11.1105 105.311 10.8724C106.798 10.2037 107.766 9.08272 108.224 7.50077C108.38 6.94026 108.45 6.36894 108.472 5.78464C108.497 5.22197 108.463 4.66796 108.339 4.11612ZM30.8053 4.49267C30.7604 4.80646 30.6985 5.11809 30.645 5.42756C30.4741 6.37543 30.2988 7.33413 30.1236 8.28633C29.9291 9.36622 29.7283 10.4461 29.5295 11.5282C29.3522 12.5171 29.1727 13.5018 28.9953 14.4908C28.9632 14.6726 28.9632 14.6769 28.7752 14.6769C25.7706 14.6769 22.7681 14.6769 19.7678 14.6769C19.7144 14.6769 19.6588 14.6856 19.5905 14.6466C19.7272 13.8827 19.864 13.1339 19.9986 12.3851C20.0499 12.1146 20.0991 11.8441 20.1482 11.5779C20.1845 11.3745 20.1824 11.3745 20.3876 11.3745C22.1933 11.3745 23.999 11.3745 25.8026 11.3745C26.074 11.3745 26.0783 11.3745 26.1296 11.0932C26.3134 10.0587 26.4972 9.02862 26.6831 7.98769C26.698 7.90112 26.7151 7.81889 26.728 7.72799C26.7472 7.59598 26.7451 7.59599 26.6126 7.58949C26.557 7.58949 26.5036 7.58949 26.4501 7.58949C24.6914 7.58949 22.9348 7.58949 21.1761 7.58949C20.9175 7.58949 20.9175 7.58949 20.9603 7.34062C21.1205 6.4079 21.2787 5.47301 21.4411 4.53595C21.4774 4.32171 21.4774 4.31737 21.6911 4.31737C23.6849 4.31737 25.6808 4.31737 27.6746 4.31737C28.6213 4.31737 29.568 4.31737 30.5147 4.31737C30.5638 4.31737 30.6108 4.31737 30.6579 4.31737C30.8245 4.3217 30.8352 4.33253 30.8053 4.49267ZM102.242 7.23458C102.007 7.8362 101.58 8.25387 101.007 8.52871C100.586 8.72781 100.131 8.8252 99.6629 8.88146C99.2868 8.9334 98.9086 8.92474 98.5367 8.92691C98.2589 8.92691 97.9811 8.92691 97.7012 8.92691C97.4917 8.92474 97.4917 8.92474 97.5302 8.72565C97.605 8.31663 97.6798 7.90329 97.7546 7.49427C97.9597 6.38842 98.1563 5.28473 98.3615 4.17671C98.4149 3.86075 98.4149 3.86075 98.7333 3.86075C99.165 3.86075 99.5967 3.85426 100.024 3.89971C100.436 3.94299 100.836 4.02089 101.223 4.18104C101.973 4.50132 102.424 5.18951 102.428 6.0097C102.441 6.42737 102.403 6.83855 102.242 7.23458Z" fill="#616161"/>
<path d="M112.797 16.3216C112.874 16.3 112.931 16.287 112.991 16.2675C113.543 16.0533 113.688 15.3413 113.271 14.9193C113.113 14.7591 112.916 14.7072 112.701 14.7072C112.254 14.692 111.809 14.7418 111.367 14.7548C111.085 14.7635 111.085 14.7635 111.1 15.0556C111.1 15.0837 111.104 15.1076 111.106 15.1357C111.13 15.588 111.151 16.0316 111.177 16.4796C111.194 16.8302 111.205 17.1786 111.222 17.5249C111.23 17.7694 111.235 17.7607 111.472 17.7521C111.641 17.7478 111.639 17.7261 111.634 17.5746C111.621 17.2868 111.604 17.0033 111.594 16.7176C111.589 16.6332 111.547 16.5272 111.598 16.4601C111.651 16.3865 111.76 16.4385 111.844 16.4168C112.19 16.3411 112.461 16.4471 112.679 16.7393C112.874 16.999 113.057 17.2652 113.25 17.5313C113.288 17.5768 113.312 17.6525 113.38 17.6525C113.525 17.6525 113.679 17.698 113.842 17.6006C113.51 17.157 113.263 16.6635 112.797 16.3216ZM112.523 16.0208C112.277 16.0424 112.027 16.0295 111.777 16.0598C111.756 16.0598 111.733 16.0598 111.718 16.0598C111.568 16.0598 111.577 16.0554 111.557 15.9083C111.538 15.7048 111.555 15.5014 111.523 15.298C111.493 15.1097 111.515 15.1011 111.715 15.0924C111.938 15.0794 112.16 15.0924 112.382 15.0491C112.506 15.0318 112.624 15.0491 112.741 15.0881C112.938 15.1379 113.072 15.3023 113.083 15.4949C113.087 15.6897 113.008 15.8369 112.833 15.9299C112.737 15.9797 112.632 16.0057 112.523 16.0208Z" fill="#616161"/>
<path d="M114.921 15.4453C114.534 14.0667 113.199 13.186 111.76 13.4435C110.32 13.6988 109.311 15.0839 109.519 16.5598C109.679 17.6981 110.32 18.4534 111.376 18.8581C111.502 18.9035 111.639 18.9122 111.756 18.9857C112.081 18.9857 112.404 18.9857 112.728 18.9857C112.951 18.9013 113.184 18.8624 113.395 18.7607C114.197 18.3755 114.712 17.75 114.942 16.8822C114.97 16.774 114.942 16.6593 115 16.5663C115 16.3217 115 16.0707 115 15.8262C114.936 15.7071 114.955 15.573 114.921 15.4453ZM112.25 18.5075C111.134 18.5031 109.982 17.5834 109.98 16.2049C109.976 14.9281 110.991 13.9066 112.26 13.9066C113.566 13.9066 114.556 15.0341 114.521 16.2049C114.57 17.3865 113.517 18.5161 112.25 18.5075Z" fill="#616161"/>
</svg>
