<svg width="68" height="21" viewBox="0 0 68 21" fill="none" xmlns="http://www.w3.org/2000/svg">
<path d="M27.2275 0.349399L23.7717 20.6948H29.2988L32.7575 0.349399H27.2275Z" fill="#616161"/>
<path d="M19.1373 0.372305L13.724 14.2473L13.1468 12.1523C12.0792 9.62799 9.04837 6.00273 5.49015 3.71804L10.4401 20.6849L16.2885 20.6749L24.9928 0.368026L19.1373 0.372305Z" fill="#616161"/>
<path d="M11.0485 1.82839C10.7273 0.589066 9.79612 0.219693 8.64038 0.175483H0.0710791L0 0.580509C6.66864 2.20346 11.0812 6.11396 12.9122 10.816L11.0485 1.82839Z" fill="#616161"/>
<path d="M43.9595 4.24991C45.7678 4.22139 47.0785 4.61786 48.0964 5.02859L48.5953 5.26391L49.3431 0.85426C48.2485 0.442104 46.5326 0 44.3917 0C38.93 0 35.0803 2.75959 35.0505 6.71429C35.0149 9.63647 37.7927 11.268 39.891 12.242C42.0447 13.2403 42.7668 13.875 42.7569 14.7663C42.7398 16.1283 41.0396 16.7529 39.4517 16.7529C37.2383 16.7529 36.0627 16.4463 34.2473 15.6876L33.5351 15.3624L32.7575 19.9161C34.0511 20.4852 36.438 20.9743 38.9158 21C44.7258 21 48.5015 18.2732 48.5413 14.0475C48.5655 11.7358 47.0913 9.97161 43.897 8.52407C41.9636 7.57997 40.7809 6.95246 40.7923 5.99979C40.7923 5.15409 41.7959 4.24991 43.9595 4.24991Z" fill="#616161"/>
<path d="M63.5277 0.372205H59.2573C57.9309 0.372205 56.9444 0.734446 56.3615 2.06076L48.1547 20.7062H53.959C53.959 20.7062 54.9058 18.199 55.1205 17.65C55.7559 17.65 61.3953 17.6585 62.1985 17.6585C62.3634 18.3687 62.8724 20.7062 62.8724 20.7062H68L63.5277 0.372205ZM56.7112 13.4856C57.1661 12.3176 58.9132 7.79957 58.9132 7.79957C58.8834 7.85519 59.3639 6.623 59.6496 5.85716L60.0221 7.61132C60.0221 7.61132 61.0812 12.4688 61.3029 13.4856H56.7112Z" fill="#616161"/>
</svg>
